<svg width="385" height="385" viewBox="0 0 385 385" fill="none" xmlns="http://www.w3.org/2000/svg">
<path d="M371.75 204.37V239.037V300.037C371.75 351.537 360.75 371.787 308.75 371.787H238.25H66.8125C52.5405 371.787 38.8531 366.118 28.7613 356.026C18.6695 345.934 13 332.247 13 317.975V66.8497C13 52.5777 18.6695 38.8903 28.7613 28.7985C38.8531 18.7067 52.5405 13.0372 66.8125 13.0372H180.417" stroke="white" stroke-width="25" stroke-linecap="round" stroke-linejoin="round"/>
<path d="M298.134 46.8068L323.626 21.2996C328.94 15.9855 336.148 13 343.663 13C351.179 13 358.386 15.9855 363.7 21.2996C369.015 26.6138 372 33.8213 372 41.3366C372 48.852 369.015 56.0595 363.7 61.3736L203.238 221.836C195.249 229.82 185.398 235.689 174.573 238.911L134 251L146.089 210.427C149.312 199.602 155.18 189.751 163.164 181.762L298.134 46.8068ZM298.134 46.8068L337.997 86.6692" stroke="white" stroke-width="25" stroke-linecap="round" stroke-linejoin="round"/>
</svg>
