<svg width="385" height="385" viewBox="0 0 385 385" fill="none" xmlns="http://www.w3.org/2000/svg">
<path d="M371.75 204.37V239.037V300.037C371.75 351.537 360.75 371.787 308.75 371.787H238.25H66.8125C52.5405 371.787 38.8531 366.118 28.7613 356.026C18.6695 345.934 13 332.247 13 317.975V66.8496C13 52.5776 18.6695 38.8902 28.7613 28.7984C38.8531 18.7066 52.5405 13.0371 66.8125 13.0371H180.417" stroke="white" stroke-width="25" stroke-linecap="round" stroke-linejoin="round"/>
<path d="M303 199.333V220.592V258C303 289.582 296.254 302 264.366 302H221.132H116C107.248 302 98.8542 298.523 92.6655 292.334C86.4768 286.146 83 277.752 83 269V115C83 106.248 86.4768 97.8542 92.6655 91.6655C98.8542 85.4768 107.248 82 116 82H185.667" stroke="white" stroke-width="25" stroke-linecap="round" stroke-linejoin="round"/>
<path d="M331.5 61.5L197.738 224.462L145 170.626" stroke="white" stroke-width="25" stroke-linecap="round" stroke-linejoin="round"/>
</svg>
